<svg xmlns="http://www.w3.org/2000/svg" viewBox="0 0 32 24" fill="none" id="icon-logoShape">
<path d="M24.706 11.2939L8.4707 11.2846V7.05859H27.5295L24.706 11.2939Z" fill="#10b981"></path>
<path d="M28.2353 4.23529L12 4.22603L14.8235 0H31.0588L28.2353 4.23529Z" fill="#10b981"></path>
<path fill-rule="evenodd" clip-rule="evenodd" d="M0 15.5292C0 20.1777 3.82209 23.9998 8.47059 23.9998C13.1191 23.9998 16.9412 20.1777 16.9412 15.5292C16.9412 10.8807 13.1191 7.05859 8.47059 7.05859C3.82209 7.05859 0 10.8807 0 15.5292ZM8.47059 19.7647C10.8097 19.7647 12.7059 17.8685 12.7059 15.5294C12.7059 13.1903 10.8097 11.2941 8.47059 11.2941C6.1315 11.2941 4.23529 13.1903 4.23529 15.5294C4.23529 17.8685 6.1315 19.7647 8.47059 19.7647Z" fill="#10b981"></path>
</svg>